<svg width="24" height="24" viewBox="0 0 24 24" fill="none" xmlns="http://www.w3.org/2000/svg">
<path d="M5.64999 5.26062H21.3299C21.6338 5.30295 21.9088 5.46292 22.0959 5.70607C22.2829 5.94922 22.367 6.2561 22.3299 6.56062C22.3271 6.70982 22.3036 6.85791 22.2599 7.00062L20.16 14.7806C20.128 15.0093 20.018 15.2199 19.8485 15.3766C19.679 15.5334 19.4604 15.6267 19.23 15.6406H8.22998C7.97297 15.6394 7.72465 15.5475 7.52886 15.381C7.33308 15.2144 7.20243 14.9841 7.15999 14.7306L5.15999 2.73062C5.0995 2.51432 4.96796 2.32468 4.78655 2.19225C4.60515 2.05983 4.38444 1.99232 4.15999 2.00062H2" stroke="#042B60" stroke-width="1.5" stroke-linecap="round" stroke-linejoin="round"/>
<path d="M9.27978 22.0006C10.3733 22.0006 11.2598 21.1141 11.2598 20.0206C11.2598 18.9271 10.3733 18.0406 9.27978 18.0406C8.18627 18.0406 7.2998 18.9271 7.2998 20.0206C7.2998 21.1141 8.18627 22.0006 9.27978 22.0006Z" stroke="#042B60" stroke-width="1.5" stroke-linecap="round" stroke-linejoin="round"/>
<path d="M18.17 22.0006C19.2635 22.0006 20.15 21.1141 20.15 20.0206C20.15 18.9271 19.2635 18.0406 18.17 18.0406C17.0764 18.0406 16.1899 18.9271 16.1899 20.0206C16.1899 21.1141 17.0764 22.0006 18.17 22.0006Z" stroke="#042B60" stroke-width="1.5" stroke-linecap="round" stroke-linejoin="round"/>
</svg>
