<svg width="24" height="24" viewBox="0 0 24 24" fill="none" xmlns="http://www.w3.org/2000/svg">
<path d="M11.9998 13.4C14.8717 13.4 17.1998 11.0719 17.1998 8.2C17.1998 5.32812 14.8717 3 11.9998 3C9.12793 3 6.7998 5.32812 6.7998 8.2C6.7998 11.0719 9.12793 13.4 11.9998 13.4Z" stroke="#042B60" stroke-width="1.5" stroke-linecap="round" stroke-linejoin="round"/>
<path d="M18.4301 21.0005C20.4301 21.0005 21.7001 19.2105 20.5701 17.8705C19.508 16.6423 18.1912 15.6599 16.7113 14.9916C15.2314 14.3233 13.6238 13.9851 12.0001 14.0005C10.3764 13.9851 8.76874 14.3233 7.28883 14.9916C5.80893 15.6599 4.4922 16.6423 3.43006 17.8705C2.30006 19.2105 3.53006 21.0005 5.57006 21.0005H18.4301Z" stroke="#042B60" stroke-width="1.5" stroke-linecap="round" stroke-linejoin="round"/>
</svg>
